<svg width="136" height="152" viewBox="0 0 136 152" fill="none" xmlns="http://www.w3.org/2000/svg">
<path d="M106.25 9.5H29.75C25.0556 9.5 21.25 12.9026 21.25 17.1V134.9C21.25 139.097 25.0556 142.5 29.75 142.5H106.25C110.944 142.5 114.75 139.097 114.75 134.9V17.1C114.75 12.9026 110.944 9.5 106.25 9.5Z" fill="#E8F5E9" stroke="#4CAF50" stroke-width="1.99984"/>
<path d="M21.25 66.5H114.75" stroke="#4CAF50" stroke-width="1.99984"/>
<path d="M107.312 28.5H103.062C101.889 28.5 100.938 29.3507 100.938 30.4V45.5999C100.938 46.6493 101.889 47.4999 103.062 47.4999H107.312C108.486 47.4999 109.438 46.6493 109.438 45.5999V30.4C109.438 29.3507 108.486 28.5 107.312 28.5Z" fill="#4CAF50"/>
<path d="M107.312 85.5H103.062C101.889 85.5 100.938 86.3507 100.938 87.4V102.6C100.938 103.649 101.889 104.5 103.062 104.5H107.312C108.486 104.5 109.438 103.649 109.438 102.6V87.4C109.438 86.3507 108.486 85.5 107.312 85.5Z" fill="#4CAF50"/>
<path d="M44.625 36.1001L57.376 39.9004" stroke="#C62828" stroke-width="2.99977" stroke-linecap="round"/>
<path d="M91.376 36.1001L78.625 39.9004" stroke="#C62828" stroke-width="2.99977" stroke-linecap="round"/>
<path d="M53.1253 49.4009C55.4727 49.4009 57.3757 47.6994 57.3757 45.6006C57.3757 43.5017 55.4727 41.8003 53.1253 41.8003C50.7779 41.8003 48.875 43.5017 48.875 45.6006C48.875 47.6994 50.7779 49.4009 53.1253 49.4009Z" fill="#C62828"/>
<path d="M82.8753 49.4009C85.2227 49.4009 87.1257 47.6994 87.1257 45.6006C87.1257 43.5017 85.2227 41.8003 82.8753 41.8003C80.5279 41.8003 78.625 43.5017 78.625 45.6006C78.625 47.6994 80.5279 49.4009 82.8753 49.4009Z" fill="#C62828"/>
<path d="M47.8125 58.8999C61.2708 52.5666 74.7292 52.5666 88.1875 58.8999" stroke="#C62828" stroke-width="2.99977" stroke-linecap="round"/>
</svg>
