<svg width="136" height="152" viewBox="0 0 136 152" fill="none" xmlns="http://www.w3.org/2000/svg">
<path d="M106.25 9.5H29.75C25.0556 9.5 21.25 12.9026 21.25 17.1V134.9C21.25 139.097 25.0556 142.5 29.75 142.5H106.25C110.944 142.5 114.75 139.097 114.75 134.9V17.1C114.75 12.9026 110.944 9.5 106.25 9.5Z" fill="#E8F5E9" stroke="#4CAF50" stroke-width="1.99984"/>
<path d="M21.25 66.5H114.75" stroke="#4CAF50" stroke-width="1.99984"/>
<path d="M107.312 28.5H103.062C101.889 28.5 100.938 29.3507 100.938 30.4V45.5999C100.938 46.6493 101.889 47.4999 103.062 47.4999H107.312C108.486 47.4999 109.438 46.6493 109.438 45.5999V30.4C109.438 29.3507 108.486 28.5 107.312 28.5Z" fill="#4CAF50"/>
<path d="M107.312 85.5H103.062C101.889 85.5 100.938 86.3507 100.938 87.4V102.6C100.938 103.649 101.889 104.5 103.062 104.5H107.312C108.486 104.5 109.438 103.649 109.438 102.6V87.4C109.438 86.3507 108.486 85.5 107.312 85.5Z" fill="#4CAF50"/>
<path d="M53.1253 46.5508C55.4727 46.5508 57.3757 44.8493 57.3757 42.7505C57.3757 40.6516 55.4727 38.9502 53.1253 38.9502C50.7779 38.9502 48.875 40.6516 48.875 42.7505C48.875 44.8493 50.7779 46.5508 53.1253 46.5508Z" fill="#2E7D32"/>
<path d="M82.8753 46.5508C85.2227 46.5508 87.1257 44.8493 87.1257 42.7505C87.1257 40.6516 85.2227 38.9502 82.8753 38.9502C80.5279 38.9502 78.625 40.6516 78.625 42.7505C78.625 44.8493 80.5279 46.5508 82.8753 46.5508Z" fill="#2E7D32"/>
<path d="M47.8125 52.25C61.2708 58.5833 74.7292 58.5833 88.1875 52.25" stroke="#2E7D32" stroke-width="2.99977" stroke-linecap="round"/>
</svg>
