<svg width="136" height="152" viewBox="0 0 136 152" fill="none" xmlns="http://www.w3.org/2000/svg">
<path d="M106.25 9.5H29.75C25.0556 9.5 21.25 12.9026 21.25 17.1V134.9C21.25 139.097 25.0556 142.5 29.75 142.5H106.25C110.944 142.5 114.75 139.097 114.75 134.9V17.1C114.75 12.9026 110.944 9.5 106.25 9.5Z" fill="#E8F5E9" stroke="#4CAF50" stroke-width="2"/>
<path d="M21.25 66.5H114.75" stroke="#4CAF50" stroke-width="2"/>
<path d="M107.312 28.5H103.062C101.889 28.5 100.938 29.3507 100.938 30.4V45.6C100.938 46.6493 101.889 47.5 103.062 47.5H107.312C108.486 47.5 109.438 46.6493 109.438 45.6V30.4C109.438 29.3507 108.486 28.5 107.312 28.5Z" fill="#4CAF50"/>
<path d="M107.312 85.5H103.062C101.889 85.5 100.938 86.3507 100.938 87.4V102.6C100.938 103.649 101.889 104.5 103.062 104.5H107.312C108.486 104.5 109.438 103.649 109.438 102.6V87.4C109.438 86.3507 108.486 85.5 107.312 85.5Z" fill="#4CAF50"/>
<path d="M53.125 45.5999C54.8854 45.5999 56.3125 44.3239 56.3125 42.7499C56.3125 41.1759 54.8854 39.8999 53.125 39.8999C51.3646 39.8999 49.9375 41.1759 49.9375 42.7499C49.9375 44.3239 51.3646 45.5999 53.125 45.5999Z" fill="#666666"/>
<path d="M82.875 45.5999C84.6354 45.5999 86.0625 44.3239 86.0625 42.7499C86.0625 41.1759 84.6354 39.8999 82.875 39.8999C81.1146 39.8999 79.6875 41.1759 79.6875 42.7499C79.6875 44.3239 81.1146 45.5999 82.875 45.5999Z" fill="#666666"/>
<path d="M53.125 55.1001H82.875" stroke="#666666" stroke-width="2" stroke-linecap="round"/>
</svg>
